<?xml version="1.0" encoding="UTF-8" standalone="no"?>
<svg
   xmlns:dc="http://purl.org/dc/elements/1.1/"
   xmlns:cc="http://creativecommons.org/ns#"
   xmlns:rdf="http://www.w3.org/1999/02/22-rdf-syntax-ns#"
   xmlns:svg="http://www.w3.org/2000/svg"
   xmlns="http://www.w3.org/2000/svg"
   xmlns:sodipodi="http://sodipodi.sourceforge.net/DTD/sodipodi-0.dtd"
   xmlns:inkscape="http://www.inkscape.org/namespaces/inkscape"
   version="1.1"
   id="Capa_1"
   x="0px"
   y="0px"
   viewBox="0 0 512.01 512.01"
   style="enable-background:new 0 0 512.01 512.01;"
   xml:space="preserve"
   sodipodi:docname="bodymist.svg"
   inkscape:version="1.0.2-2 (e86c870879, 2021-01-15)"><metadata
   id="metadata57"><rdf:RDF><cc:Work
       rdf:about=""><dc:format>image/svg+xml</dc:format><dc:type
         rdf:resource="http://purl.org/dc/dcmitype/StillImage" /></cc:Work></rdf:RDF></metadata><defs
   id="defs55" /><sodipodi:namedview
   pagecolor="#ffffff"
   bordercolor="#666666"
   borderopacity="1"
   objecttolerance="10"
   gridtolerance="10"
   guidetolerance="10"
   inkscape:pageopacity="0"
   inkscape:pageshadow="2"
   inkscape:window-width="1366"
   inkscape:window-height="745"
   id="namedview53"
   showgrid="false"
   inkscape:zoom="0.79824166"
   inkscape:cx="165.0081"
   inkscape:cy="308.10807"
   inkscape:window-x="-8"
   inkscape:window-y="-8"
   inkscape:window-maximized="1"
   inkscape:current-layer="Capa_1" />
<g
   id="g20"
   style="fill:#ae8e26;fill-opacity:1"
   transform="matrix(0.84962979,0,0,0.76572743,43.050455,55.120977)">
	<g
   id="g18"
   style="fill:#ae8e26;fill-opacity:1">
		<g
   id="g16"
   style="fill:#ae8e26;fill-opacity:1">
			<path
   d="M 277.338,117.467 V 10.677 c 0,-5.896 -4.771,-10.667 -10.667,-10.667 h -3.656 c -41.76,0 -81.021,16.26 -110.552,45.792 -2,2 -3.125,4.708 -3.125,7.542 v 64.124 c -14.19,6.526 -19.004,14.03 -20.208,16.439 -0.74,1.479 -1.125,3.115 -1.125,4.771 v 330.667 c 0,23.531 19.135,42.667 42.667,42.667 h 85.333 c 23.531,0 42.667,-19.135 42.667,-42.667 V 138.677 c 0,-1.656 -0.385,-3.292 -1.125,-4.771 -1.205,-2.409 -6.019,-9.913 -20.209,-16.439 z M 170.672,57.854 c 23.406,-21.979 53.344,-34.708 85.333,-36.333 v 24.436 c -6.258,3.724 -10.667,10.262 -10.667,18.053 0,7.791 4.409,14.329 10.667,18.053 v 28.574 c -11.125,-2.382 -25.057,-3.961 -42.667,-3.961 -17.611,0 -31.542,1.581 -42.667,3.962 V 57.854 Z m 106.666,411.489 c 0,11.76 -9.573,21.333 -21.333,21.333 h -85.333 c -11.76,0 -21.333,-9.573 -21.333,-21.333 V 142.468 c 4.354,-4 19.958,-14.458 64,-14.458 44.635,0 60.063,10.74 64,14.302 v 327.031 z"
   id="path2"
   style="fill:#ae8e26;fill-opacity:1" />
			<path
   d="m 320.005,53.343 h -10.667 c -5.896,0 -10.667,4.771 -10.667,10.667 0,5.896 4.771,10.667 10.667,10.667 h 10.667 c 5.896,0 10.667,-4.771 10.667,-10.667 0,-5.896 -4.771,-10.667 -10.667,-10.667 z"
   id="path4"
   style="fill:#ae8e26;fill-opacity:1" />
			<path
   d="m 362.672,74.677 h 10.667 c 5.896,0 10.667,-4.771 10.667,-10.667 0,-5.896 -4.771,-10.667 -10.667,-10.667 h -10.667 c -5.896,0 -10.667,4.771 -10.667,10.667 0,5.896 4.771,10.667 10.667,10.667 z"
   id="path6"
   style="fill:#ae8e26;fill-opacity:1" />
			<path
   d="m 309.338,42.677 c 1.115,0 2.26,-0.177 3.375,-0.552 l 10.115,-3.375 c 5.594,-1.865 8.604,-7.906 6.74,-13.49 -1.864,-5.584 -7.917,-8.594 -13.49,-6.74 l -10.115,3.375 c -5.594,1.865 -8.604,7.906 -6.74,13.49 1.49,4.469 5.647,7.292 10.115,7.292 z"
   id="path8"
   style="fill:#ae8e26;fill-opacity:1" />
			<path
   d="m 363.224,24.718 c 1.115,0 2.26,-0.177 3.375,-0.552 l 10.115,-3.375 c 5.594,-1.865 8.604,-7.906 6.74,-13.49 -1.854,-5.573 -7.896,-8.635 -13.49,-6.74 l -10.115,3.375 c -5.594,1.865 -8.604,7.906 -6.74,13.49 1.49,4.469 5.646,7.292 10.115,7.292 z"
   id="path10"
   style="fill:#ae8e26;fill-opacity:1" />
			<path
   d="m 322.828,89.27 -10.115,-3.375 c -5.563,-1.865 -11.625,1.156 -13.49,6.74 -1.865,5.584 1.146,11.625 6.74,13.49 l 10.115,3.375 c 1.115,0.375 2.26,0.552 3.375,0.552 4.469,0 8.625,-2.823 10.115,-7.292 1.864,-5.583 -1.146,-11.625 -6.74,-13.49 z"
   id="path12"
   style="fill:#ae8e26;fill-opacity:1" />
			<path
   d="m 376.713,107.229 -10.115,-3.375 c -5.604,-1.875 -11.635,1.156 -13.49,6.74 -1.865,5.583 1.146,11.625 6.74,13.49 l 10.115,3.375 c 1.115,0.375 2.26,0.552 3.375,0.552 4.469,0 8.625,-2.823 10.115,-7.292 1.865,-5.584 -1.146,-11.626 -6.74,-13.49 z"
   id="path14"
   style="fill:#ae8e26;fill-opacity:1" />
		</g>
	</g>
</g>
<g
   id="g22">
</g>
<g
   id="g24">
</g>
<g
   id="g26">
</g>
<g
   id="g28">
</g>
<g
   id="g30">
</g>
<g
   id="g32">
</g>
<g
   id="g34">
</g>
<g
   id="g36">
</g>
<g
   id="g38">
</g>
<g
   id="g40">
</g>
<g
   id="g42">
</g>
<g
   id="g44">
</g>
<g
   id="g46">
</g>
<g
   id="g48">
</g>
<g
   id="g50">
</g>
</svg>
