<?xml version="1.0" encoding="UTF-8" standalone="no"?>
<svg
   xmlns:dc="http://purl.org/dc/elements/1.1/"
   xmlns:cc="http://creativecommons.org/ns#"
   xmlns:rdf="http://www.w3.org/1999/02/22-rdf-syntax-ns#"
   xmlns:svg="http://www.w3.org/2000/svg"
   xmlns="http://www.w3.org/2000/svg"
   xmlns:sodipodi="http://sodipodi.sourceforge.net/DTD/sodipodi-0.dtd"
   xmlns:inkscape="http://www.inkscape.org/namespaces/inkscape"
   height="512"
   viewBox="0 0 51 60"
   width="512"
   version="1.1"
   id="svg15"
   sodipodi:docname="deo.svg"
   inkscape:version="1.0.2-2 (e86c870879, 2021-01-15)">
  <metadata
     id="metadata21">
    <rdf:RDF>
      <cc:Work
         rdf:about="">
        <dc:format>image/svg+xml</dc:format>
        <dc:type
           rdf:resource="http://purl.org/dc/dcmitype/StillImage" />
      </cc:Work>
    </rdf:RDF>
  </metadata>
  <defs
     id="defs19" />
  <sodipodi:namedview
     pagecolor="#ffffff"
     bordercolor="#666666"
     borderopacity="1"
     objecttolerance="10"
     gridtolerance="10"
     guidetolerance="10"
     inkscape:pageopacity="0"
     inkscape:pageshadow="2"
     inkscape:window-width="1366"
     inkscape:window-height="745"
     id="namedview17"
     showgrid="false"
     inkscape:zoom="0.56445313"
     inkscape:cx="-26.615427"
     inkscape:cy="254.62692"
     inkscape:window-x="-8"
     inkscape:window-y="-8"
     inkscape:window-maximized="1"
     inkscape:current-layer="svg15" />
  <g
     id="Page-1"
     fill="none"
     fill-rule="evenodd"
     style="fill:#ae8e26;fill-opacity:1"
     transform="matrix(0.75086055,0,0,0.8026733,7.3081881,6.0264529)">
    <g
       id="018---Roll-On"
       fill="rgb(0,0,0)"
       fill-rule="nonzero"
       style="fill:#ae8e26;fill-opacity:1">
      <path
         id="Shape"
         d="M 27.752,18.326 C 27.842832,17.518792 27.599533,16.709558 27.078619,16.086274 26.557704,15.462989 25.804512,15.079903 24.994,15.026 24.982447,12.870679 24.629402,10.730806 23.948,8.686 23.812738,8.277016 23.43077,8.0006131 23,8 H 22.941 C 22.418289,3.4574677 18.572508,0.02884353 14,0.02884353 9.4274924,0.02884353 5.5817105,3.4574677 5.059,8 H 5 C 4.5697607,8.0003267 4.1879555,8.2758064 4.052,8.684 3.3705979,10.728806 3.0175526,12.868679 3.006,15.024 2.1954879,15.077903 1.4422957,15.460989 0.92138115,16.084274 0.40046656,16.707558 0.15716769,17.516792 0.248,18.324 l 0.086,0.789 c 1.2158049,11.481077 1.5314347,23.039683 0.944,34.57 -0.086993,1.644262 0.5055624,3.252019 1.6388202,4.446544 C 4.050078,59.324069 5.6244389,60.000379 7.271,60 h 13.458 c 1.646195,3.5e-4 3.220227,-0.675687 4.353421,-1.869768 C 26.215616,56.936152 26.808425,55.328925 26.722,53.685 26.134565,42.154683 26.450195,30.596077 27.666,19.115 Z M 5.735,10 h 16.53 c 0.472564,1.625199 0.719871,3.307559 0.735,5 H 5 C 5.015129,13.307559 5.262436,11.625199 5.735,10 Z M 14,2 c 3.476582,0.00407 6.423347,2.5590733 6.92,6 H 7.08 C 7.5766526,4.5590733 10.523418,2.0040745 14,2 Z m 11.678,16.9 c -1.227143,11.588011 -1.546115,23.254248 -0.954,34.892 0.05766,1.09676 -0.338172,2.168981 -1.094658,2.965183 C 22.872856,57.553384 21.822274,58.003515 20.724,58.002 H 7.271 C 6.1727264,58.003515 5.1221435,57.553384 4.3656577,56.757183 3.609172,55.960981 3.2133395,54.88876 3.271,53.792 3.864776,42.154378 3.5474752,30.488141 2.322,18.9 L 2.236,18.111 C 2.2044123,17.828184 2.2948145,17.545306 2.4845616,17.333225 2.6743086,17.121143 2.9454258,16.999949 3.23,17 h 21.54 c 0.284185,1.2e-5 0.554943,0.120936 0.74462,0.332558 0.189677,0.211621 0.280356,0.49395 0.24938,0.776442 z"
         style="fill:#ae8e26;fill-opacity:1" />
      <path
         id="path3"
         d="m 48,60 c 1.656854,0 3,-1.343146 3,-3 V 50 C 51,43.924868 46.075132,39 40,39 33.924868,39 29,43.924868 29,50 v 7 c 0,1.656854 1.343146,3 3,3 z M 31,57 v -1 h 3 c 0.552285,0 1,-0.447715 1,-1 0,-0.552285 -0.447715,-1 -1,-1 h -3 v -4 c 0,-4.970563 4.029437,-9 9,-9 4.970563,0 9,4.029437 9,9 v 4 H 39 c -0.552285,0 -1,0.447715 -1,1 0,0.552285 0.447715,1 1,1 h 10 v 1 c 0,0.552285 -0.447715,1 -1,1 H 32 c -0.552285,0 -1,-0.447715 -1,-1 z"
         style="fill:#ae8e26;fill-opacity:1" />
      <path
         id="path5"
         d="m 14,27 c -3.925,0 -7,5.71 -7,13 0,7.29 3.075,13 7,13 3.925,0 7,-5.71 7,-13 0,-7.29 -3.075,-13 -7,-13 z m 0,24 c -2.365,0 -5,-4.518 -5,-11 0,-6.482 2.635,-11 5,-11 2.365,0 5,4.518 5,11 0,6.482 -2.635,11 -5,11 z"
         style="fill:#ae8e26;fill-opacity:1" />
      <path
         id="path7"
         d="M 36,48 C 35.95705,47.191065 36.260006,46.402009 36.833292,45.829676 37.406578,45.257344 38.196137,44.955702 39.005,45 39.557285,44.9986 40.003881,44.549785 40.0025,43.9975 40.001119,43.445215 39.552285,42.998619 39,43 37.658992,42.949212 36.3575,43.459669 35.408584,44.408584 34.459669,45.3575 33.949212,46.658992 34,48 c 0,0.552285 0.447715,1 1,1 0.552285,0 1,-0.447715 1,-1 z"
         style="fill:#ae8e26;fill-opacity:1" />
      <path
         id="path9"
         d="M 9,20 C 9,19.447715 8.5522848,19 8,19 H 6 c -0.5522848,0 -1,0.447715 -1,1 0,0.552285 0.4477152,1 1,1 h 2 c 0.5522848,0 1,-0.447715 1,-1 z"
         style="fill:#ae8e26;fill-opacity:1" />
      <path
         id="path11"
         d="M 22,19 H 12 c -0.552285,0 -1,0.447715 -1,1 0,0.552285 0.447715,1 1,1 h 10 c 0.552285,0 1,-0.447715 1,-1 0,-0.552285 -0.447715,-1 -1,-1 z"
         style="fill:#ae8e26;fill-opacity:1" />
    </g>
  </g>
</svg>
