<?xml version="1.0" encoding="UTF-8" standalone="no"?>
<svg
   xmlns:dc="http://purl.org/dc/elements/1.1/"
   xmlns:cc="http://creativecommons.org/ns#"
   xmlns:rdf="http://www.w3.org/1999/02/22-rdf-syntax-ns#"
   xmlns:svg="http://www.w3.org/2000/svg"
   xmlns="http://www.w3.org/2000/svg"
   xmlns:sodipodi="http://sodipodi.sourceforge.net/DTD/sodipodi-0.dtd"
   xmlns:inkscape="http://www.inkscape.org/namespaces/inkscape"
   id="line_icons"
   height="512"
   viewBox="0 0 74 74"
   width="512"
   data-name="line icons"
   version="1.1"
   sodipodi:docname="perfume.svg"
   inkscape:version="1.0.2-2 (e86c870879, 2021-01-15)">
  <metadata
     id="metadata27">
    <rdf:RDF>
      <cc:Work
         rdf:about="">
        <dc:format>image/svg+xml</dc:format>
        <dc:type
           rdf:resource="http://purl.org/dc/dcmitype/StillImage" />
      </cc:Work>
    </rdf:RDF>
  </metadata>
  <defs
     id="defs25" />
  <sodipodi:namedview
     pagecolor="#ffffff"
     bordercolor="#666666"
     borderopacity="1"
     objecttolerance="10"
     gridtolerance="10"
     guidetolerance="10"
     inkscape:pageopacity="0"
     inkscape:pageshadow="2"
     inkscape:window-width="1366"
     inkscape:window-height="745"
     id="namedview23"
     showgrid="false"
     inkscape:zoom="0.56445313"
     inkscape:cx="487.09293"
     inkscape:cy="454.92129"
     inkscape:window-x="-8"
     inkscape:window-y="-8"
     inkscape:window-maximized="1"
     inkscape:current-layer="line_icons" />
  <path
     d="M 52.042943,64.83045 H 26.861342 a 0.86129225,0.80974524 0 0 1 -0.503856,-0.153042 22.388431,21.048518 0 0 1 4.383978,-36.476593 0.86129225,0.80974524 0 0 1 0.335042,-0.06316 h 16.751273 a 0.86646001,0.81460371 0 0 1 0.335905,0.06316 22.393599,21.053376 0 0 1 4.3857,36.476593 0.86129225,0.80974524 0 0 1 -0.506441,0.153042 z M 27.141262,63.21096 H 51.761301 A 20.665846,19.429028 0 0 0 47.651214,29.757145 H 31.253072 a 20.664124,19.427408 0 0 0 -4.11181,33.453815 z"
     id="path2"
     style="fill:#ae8e26;fill-opacity:1;stroke-width:0.835121" />
  <path
     d="M 47.827779,29.757145 H 31.076506 A 0.86129225,0.80974524 0 0 1 30.215214,28.9474 v -5.239051 a 2.9645679,2.7871431 0 0 1 2.960262,-2.783905 h 12.552473 a 2.9654292,2.7879528 0 0 1 2.961123,2.783905 V 28.9474 a 0.86129225,0.80974524 0 0 1 -0.861293,0.809745 z M 31.937798,28.137655 H 46.966487 V 23.708349 A 1.2402609,1.1660332 0 0 0 45.727949,22.543934 H 33.175476 a 1.2393995,1.1652234 0 0 0 -1.237678,1.164415 z"
     id="path4"
     style="fill:#ae8e26;fill-opacity:1;stroke-width:0.835121" />
  <path
     d="m 41.378422,22.546364 h -3.851698 a 0.86129225,0.80974524 0 0 1 -0.861292,-0.809745 v -5.446347 a 0.8612923,0.80974528 0 0 1 1.722584,0 v 4.636602 h 2.129114 v -5.033377 a 0.86129253,0.8097455 0 1 1 1.722585,0 v 5.843122 a 0.86129225,0.80974524 0 0 1 -0.861293,0.809745 z"
     id="path6"
     style="fill:#ae8e26;fill-opacity:1;stroke-width:0.835121" />
  <path
     d="m 35.173674,17.359136 a 2.6122994,2.4559573 0 0 1 -2.613162,-2.456767 v -2.404943 a 2.6131607,2.4567671 0 0 1 2.939591,-2.437333 l 10.152914,1.203281 a 2.6131607,2.4567671 0 0 1 0,4.874666 l -10.152914,1.201662 a 2.7681933,2.6025212 0 0 1 -0.326429,0.01943 z m -0.0043,-5.698987 a 0.89143749,0.83808632 0 0 0 -0.886269,0.837277 v 2.404943 a 0.88885361,0.83565708 0 0 0 1.001682,0.829989 l 10.152914,-1.200853 a 0.89057619,0.83727657 0 0 0 0,-1.660787 L 35.28478,11.666627 a 0.86129225,0.80974524 0 0 0 -0.115412,-0.0065 z"
     id="path8"
     style="fill:#ae8e26;fill-opacity:1;stroke-width:0.835121" />
  <path
     d="m 20.277624,22.119628 a 0.86129225,0.80974524 0 0 1 -0.775163,-1.157126 14.185483,13.336504 0 0 1 14.029589,-7.81728 0.86148519,0.8099266 0 1 1 -0.22049,1.606534 12.242408,11.509719 0 0 0 -12.255328,6.905508 0.86129225,0.80974524 0 0 1 -0.778608,0.462364 z"
     id="path10"
     style="fill:#ae8e26;fill-opacity:1;stroke-width:0.835121" />
  <path
     d="m 16.096912,34.086043 a 4.4373777,4.1718074 0 0 1 -3.955055,-6.048797 l 2.928395,-5.460921 a 4.4399616,4.1742367 0 0 1 5.955835,-1.84703 4.4391002,4.1734269 0 0 1 1.963746,5.600199 l -2.928393,5.463351 a 4.4080937,4.1442761 0 0 1 -2.566651,2.081855 4.4718294,4.2041973 0 0 1 -1.397877,0.211343 z m 2.937006,-12.182617 a 2.717377,2.5547462 0 0 0 -2.427983,1.401669 l -2.928393,5.461732 a 2.7157351,2.5532026 0 1 0 4.850797,2.297247 l 2.928394,-5.461732 a 2.7104867,2.5482683 0 0 0 -2.417647,-3.696486 z"
     id="path12"
     style="fill:#ae8e26;fill-opacity:1;stroke-width:0.835121" />
  <path
     d="M 49.893158,11.225316 A 0.86129225,0.80974524 0 0 1 49.628741,9.6446931 l 4.79826,-1.4575414 a 0.86129225,0.80974524 0 0 1 0.528833,1.538516 l -4.799121,1.4575413 a 0.87593422,0.82351091 0 0 1 -0.263555,0.0421 z"
     id="path14"
     style="fill:#ae8e26;fill-opacity:1;stroke-width:0.835121" />
  <path
     d="M 54.691417,19.25151 A 0.86646001,0.81460371 0 0 1 54.42614,19.21183 l -4.798259,-1.457541 a 0.86129225,0.80974524 0 0 1 0.529694,-1.538516 l 4.79912,1.457542 a 0.86129225,0.80974524 0 0 1 -0.265278,1.580622 z"
     id="path16"
     style="fill:#ae8e26;fill-opacity:1;stroke-width:0.835121" />
  <path
     d="m 58.374303,14.508833 h -6.71808 a 0.86129225,0.80974524 0 0 1 0,-1.61949 h 6.71808 a 0.86129225,0.80974524 0 0 1 0,1.61949 z"
     id="path18"
     style="fill:#ae8e26;fill-opacity:1;stroke-width:0.835121" />
  <path
     d="m 48.186077,49.815345 c -0.224797,0 -0.449594,-0.0057 -0.676114,-0.01619 -0.16623,-0.0089 -0.323846,-0.01782 -0.490076,-0.03481 A 10.566333,9.9339543 0 0 1 44.907999,49.413718 C 39.654116,48.087355 27.696796,44.886432 27.577076,44.854042 a 13.728137,12.906529 0 0 0 -2.837097,-0.485847 5.5122705,5.1823695 0 0 0 -3.408134,0.554676 5.988565,5.6301586 0 0 0 -2.557176,3.624419 0.86129225,0.80974524 0 0 1 -1.688994,-0.318229 7.7516303,7.2877072 0 0 1 3.337507,-4.685186 7.3106487,6.8731176 0 0 1 4.433932,-0.79274 15.492064,14.564888 0 0 1 3.186783,0.544958 c 0.122303,0.03239 12.067566,3.230074 17.311974,4.554817 a 8.876478,8.3452344 0 0 0 1.808714,0.299605 c 0.172257,0.01782 0.304036,0.0243 0.430645,0.03158 a 11.910811,11.197967 0 0 0 11.597301,-6.963809 0.86129225,0.80974524 0 1 1 1.595113,0.610548 13.635118,12.819077 0 0 1 -12.601567,7.986517 z"
     id="path20"
     style="fill:#ae8e26;fill-opacity:1;stroke-width:0.835121" />
</svg>
