<?xml version="1.0" encoding="UTF-8" standalone="no"?>
<svg
   xmlns:dc="http://purl.org/dc/elements/1.1/"
   xmlns:cc="http://creativecommons.org/ns#"
   xmlns:rdf="http://www.w3.org/1999/02/22-rdf-syntax-ns#"
   xmlns:svg="http://www.w3.org/2000/svg"
   xmlns="http://www.w3.org/2000/svg"
   xmlns:sodipodi="http://sodipodi.sourceforge.net/DTD/sodipodi-0.dtd"
   xmlns:inkscape="http://www.inkscape.org/namespaces/inkscape"
   height="512"
   viewBox="0 0 64 64"
   width="512"
   version="1.1"
   id="svg15"
   sodipodi:docname="scent.svg"
   inkscape:version="1.0.2-2 (e86c870879, 2021-01-15)">
  <metadata
     id="metadata21">
    <rdf:RDF>
      <cc:Work
         rdf:about="">
        <dc:format>image/svg+xml</dc:format>
        <dc:type
           rdf:resource="http://purl.org/dc/dcmitype/StillImage" />
      </cc:Work>
    </rdf:RDF>
  </metadata>
  <defs
     id="defs19" />
  <sodipodi:namedview
     pagecolor="#ffffff"
     bordercolor="#666666"
     borderopacity="1"
     objecttolerance="10"
     gridtolerance="10"
     guidetolerance="10"
     inkscape:pageopacity="0"
     inkscape:pageshadow="2"
     inkscape:window-width="1366"
     inkscape:window-height="745"
     id="namedview17"
     showgrid="false"
     inkscape:zoom="0.56445313"
     inkscape:cx="151.76809"
     inkscape:cy="428.97643"
     inkscape:window-x="-8"
     inkscape:window-y="-8"
     inkscape:window-maximized="1"
     inkscape:current-layer="svg15" />
  <g
     id="outline"
     style="fill:#ae8e26;fill-opacity:1"
     transform="matrix(0.86377152,0,0,0.8290341,4.2580326,5.9493665)">
    <path
       d="M 33,61 V 35 A 1,1 0 0 0 32.555,34.168 L 30,32.465 V 19 A 1,1 0 0 0 29,18 H 17 a 1,1 0 0 0 -1,1 v 13.465 l -2.555,1.7 A 1,1 0 0 0 13,35 v 26 a 1,1 0 0 0 1,1 h 18 a 1,1 0 0 0 1,-1 z M 28,20 V 32 H 26 V 20 Z m -10,0 h 6 V 32 H 18 Z M 17.3,34 H 28.7 L 31,35.535 V 58.88 A 14.113,14.113 0 0 0 23,56 14.113,14.113 0 0 0 15,58.88 V 35.535 Z M 29.075,60 H 16.925 A 11.6,11.6 0 0 1 23,58 a 11.6,11.6 0 0 1 6.075,2 z"
       id="path2"
       style="fill:#ae8e26;fill-opacity:1" />
    <path
       d="m 18,50 h 10 a 1,1 0 0 0 1,-1 V 37 A 1,1 0 0 0 28,36 H 18 a 1,1 0 0 0 -1,1 v 12 a 1,1 0 0 0 1,1 z m 1,-12 h 8 v 10 h -8 z"
       id="path4"
       style="fill:#ae8e26;fill-opacity:1" />
    <path
       d="M 50,18 H 49 V 3 A 1,1 0 0 0 48,2 H 38 a 1,1 0 0 0 -1,1 v 15 h -1 a 1,1 0 0 0 -1,1 v 41 a 2,2 0 0 0 2,2 h 12 a 2,2 0 0 0 2,-2 V 19 A 1,1 0 0 0 50,18 Z M 47,4 V 18 H 45 V 4 Z m -8,0 h 4 V 18 H 39 Z M 37,20 H 49 V 56 H 37 Z m 0,40 v -2 h 12 v 2 z"
       id="path6"
       style="fill:#ae8e26;fill-opacity:1" />
    <path
       d="m 46,22 h -6 a 1,1 0 0 0 -1,1 v 16 a 1,1 0 0 0 1,1 h 6 a 1,1 0 0 0 1,-1 V 23 A 1,1 0 0 0 46,22 Z M 45,38 H 41 V 24 h 4 z"
       id="path8"
       style="fill:#ae8e26;fill-opacity:1" />
    <path
       d="m 39,52 h 2 v 2 h -2 z"
       id="path10"
       style="fill:#ae8e26;fill-opacity:1" />
    <path
       d="m 45,52 h -2 v 2 h 3 a 1,1 0 0 0 1,-1 v -5 h -2 z"
       id="path12"
       style="fill:#ae8e26;fill-opacity:1" />
  </g>
</svg>
